# xmcd
#
# Track frame offsets:
# 150
# 19445
# 32826
# 43211
# 62220
# 79564
# 96790
# 112446
# 121226
# 144525
# 157449
# 175513
#
# Disc length: 2552 seconds
#
#
# Revision: 0
# Processed by: cddbd v1.5.2PL0 Copyright (c) Steve Scherf et al.
# Submitted via: Nero 7, 11, 10, 0 
#
DISCID=ad09f60c
DTITLE=Jim Talbot - One Of A Kind
DYEAR=1996
DGENRE=Blues
TTITLE0=Delivery Man
TTITLE1=Won't Stay Worried
TTITLE2=Hard To Do
TTITLE3=Scuba
TTITLE4=Divorce Court On TV
TTITLE5=Lonesome Tune
TTITLE6=Hands Of Time
TTITLE7=Snatchin'
TTITLE8=One Of A Kind
TTITLE9=Drifting On The Sea
TTITLE10=Longing For love
TTITLE11=Tramp Thing
EXTD=
EXTT0=Delivery Man
EXTT1=Won't Stay Worried
EXTT2=Hard To Do
EXTT3=Scuba
EXTT4=Divorce Court On TV
EXTT5=Lonesome Tune
EXTT6=Hands Of Time
EXTT7=Snatchin'
EXTT8=One Of A Kind
EXTT9=Drifting On The Sea
EXTT10=Longing For love
EXTT11=Tramp Thing
PLAYORDER=
